<svg xmlns="http://www.w3.org/2000/svg" width="48" height="48" viewBox="0 0 48 48">
  <defs>
    <linearGradient id="icon-2-a" x1="93.76%" x2="0%" y1="48.784%" y2="51.389%">
      <stop offset="0%" stop-color="#F76262"/>
      <stop offset="100%" stop-color="#E1365F"/>
    </linearGradient>
    <linearGradient id="icon-2-b" x1="93.76%" x2="0%" y1="21.112%" y2="83.008%">
      <stop offset="0%" stop-color="#F76262"/>
      <stop offset="100%" stop-color="#E1365F"/>
    </linearGradient>
    <linearGradient id="icon-2-c" x1="93.76%" x2="0%" y1="49.107%" y2="51.02%">
      <stop offset="0%" stop-color="#F76262"/>
      <stop offset="100%" stop-color="#E1365F"/>
    </linearGradient>
    <linearGradient id="icon-2-d" x1="93.76%" x2="0%" y1="25.385%" y2="78.125%">
      <stop offset="0%" stop-color="#F76262"/>
      <stop offset="100%" stop-color="#E1365F"/>
    </linearGradient>
  </defs>
  <g fill="none">
    <path fill="url(#icon-2-a)" d="M1,32 L13.26,32 C13.7086093,32 14.1040878,32.3326809 14.2499701,32.8617938 C15.078342,35.8738404 17.8291246,38 21,38 L27,38 C30.1708754,38 32.921658,35.8738404 33.7502005,32.8611741 C33.8959122,32.3326809 34.2913907,32 34.74,32 L47,32 C47.5522847,32 48,31.5522847 48,31 C48,30.4477153 47.5522847,30 47,30 L34.74,30 C33.4098083,30 32.2978558,30.886736 31.8752772,32.1549507 L31.8219701,32.3302062 C31.2305338,34.4807288 29.2649313,36 27,36 L21,36 C18.8105664,36 16.900839,34.5803255 16.2418684,32.5436811 L16.1782005,32.3308259 C15.8027799,30.9691804 14.650655,30 13.26,30 L1,30 C0.44771525,30 0,30.4477153 0,31 C0,31.5522847 0.44771525,32 1,32 Z"/>
    <path fill="url(#icon-2-b)" d="M10,2 L32.5208029,2 L38,7.53523635 L38,25 C38,25.5522847 38.4477153,26 39,26 C39.5522847,26 40,25.5522847 40,25 L40,7.124 C40,6.86054609 39.896035,6.60773538 39.7106952,6.42049995 L33.6486952,0.296499946 C33.4608748,0.10675857 33.20498,0 32.938,0 L9,0 C8.44771525,0 8,0.44771525 8,1 L8,25 C8,25.5522847 8.44771525,26 9,26 C9.55228475,26 10,25.5522847 10,25 L10,2 Z" opacity=".5"/>
    <path fill="url(#icon-2-c)" d="M18 13L30 13C30.5522847 13 31 12.5522847 31 12 31 11.4477153 30.5522847 11 30 11L18 11C17.4477153 11 17 11.4477153 17 12 17 12.5522847 17.4477153 13 18 13zM18 21L30 21C30.5522847 21 31 20.5522847 31 20 31 19.4477153 30.5522847 19 30 19L18 19C17.4477153 19 17 19.4477153 17 20 17 20.5522847 17.4477153 21 18 21z" opacity=".5"/>
    <path fill="url(#icon-2-d)" d="M46.0061163,31.1104315 L46,31 L46,31.0553851 L46.0061163,31.1104315 Z M46,43 C46,44.6557153 44.6557153,46 43,46 L5,46 C3.34428475,46 2,44.6557153 2,43 L2,31.0553851 L3.99388373,13.1104315 C4.05487338,12.5615247 3.65933836,12.0671059 3.11043153,12.0061163 C2.5615247,11.9451266 2.06710591,12.3406616 2.00611627,12.8895685 L0.00611626533,30.8895685 L0,31 L0,43 C0,45.7602847 2.23971525,48 5,48 L43,48 C45.7602847,48 48,45.7602847 48,43 L48,31 L47.9938837,30.8895685 L45.9938837,12.8895685 C45.9328941,12.3406616 45.4384753,11.9451266 44.8895685,12.0061163 C44.3406616,12.0671059 43.9451266,12.5615247 44.0061163,13.1104315 L46,31.0553851 L46,43 Z"/>
  </g>
</svg>
