<svg xmlns="http://www.w3.org/2000/svg" width="44" height="48" viewBox="0 0 44 48">
  <defs>
    <linearGradient id="icon-1-a" x1="93.76%" x2="0%" y1="44.214%" y2="56.612%">
      <stop offset="0%" stop-color="#F76262"/>
      <stop offset="100%" stop-color="#E1365F"/>
    </linearGradient>
    <linearGradient id="icon-1-b" x1="93.76%" x2="0%" y1="46.746%" y2="53.719%">
      <stop offset="0%" stop-color="#F76262"/>
      <stop offset="100%" stop-color="#E1365F"/>
    </linearGradient>
    <linearGradient id="icon-1-c" x1="93.76%" x2="0%" y1="6.24%" y2="100%">
      <stop offset="0%" stop-color="#F76262"/>
      <stop offset="100%" stop-color="#E1365F"/>
    </linearGradient>
    <linearGradient id="icon-1-d" x1="93.76%" x2="0%" y1="49.316%" y2="50.781%">
      <stop offset="0%" stop-color="#F76262"/>
      <stop offset="100%" stop-color="#E1365F"/>
    </linearGradient>
    <linearGradient id="icon-1-e" x1="93.76%" x2="0%" y1="46.215%" y2="54.325%">
      <stop offset="0%" stop-color="#F76262"/>
      <stop offset="100%" stop-color="#E1365F"/>
    </linearGradient>
  </defs>
  <g fill="none" fill-rule="evenodd" transform="translate(-1)">
    <path fill="url(#icon-1-a)" fill-rule="nonzero" d="M2,26 L44,26 C44.5522847,26 45,25.5522847 45,25 L45,11 C45,10.4477153 44.5522847,10 44,10 L2,10 C1.44771525,10 1,10.4477153 1,11 L1,25 C1,25.5522847 1.44771525,26 2,26 Z M3,24 L3,12 L43,12 L43,24 L3,24 Z"/>
    <path fill="url(#icon-1-b)" fill-rule="nonzero" d="M44.8689394,10.5050814 C45.2486405,11.171731 44.7671992,12 44,12 L2,12 C1.23280084,12 0.75135953,11.171731 1.13106065,10.5050814 L5.67447555,2.52811011 C6.56207862,0.965428643 8.22203538,0 10.02,0 L35.98,0 C37.7779646,0 39.4379214,0.965428643 40.3249394,2.52708142 L44.8689394,10.5050814 Z M38.5864755,3.51588989 C38.0543865,2.57911348 37.0586596,2 35.98,2 L10.02,2 C8.94134042,2 7.94561346,2.57911348 7.41293935,3.51691858 L3.72039461,10 L42.2796055,10 L38.5864755,3.51588989 Z"/>
    <path fill="url(#icon-1-a)" fill-rule="nonzero" d="M42,40 L4,40 C2.34317876,40 1,38.6577489 1,37 L1,25 C1,24.4477153 1.44771525,24 2,24 L44,24 C44.5522847,24 45,24.4477153 45,25 L45,37 C45,38.6577489 43.6568212,40 42,40 Z M3,26 L3,37 C3,37.5528699 3.44743907,38 4,38 L42,38 C42.5525609,38 43,37.5528699 43,37 L43,26 L3,26 Z"/>
    <path fill="url(#icon-1-c)" d="M11 18C11 19.106 10.104 20 9 20 7.896 20 7 19.106 7 18 7 16.894 7.896 16 9 16 10.104 16 11 16.894 11 18M11 32C11 33.106 10.104 34 9 34 7.896 34 7 33.106 7 32 7 30.894 7.896 30 9 30 10.104 30 11 30.894 11 32" opacity=".5"/>
    <path fill="url(#icon-1-d)" fill-rule="nonzero" d="M24 20L38 20C38.5522847 20 39 19.5522847 39 19 39 18.4477153 38.5522847 18 38 18L24 18C23.4477153 18 23 18.4477153 23 19 23 19.5522847 23.4477153 20 24 20zM24 34L38 34C38.5522847 34 39 33.5522847 39 33 39 32.4477153 38.5522847 32 38 32L24 32C23.4477153 32 23 32.4477153 23 33 23 33.5522847 23.4477153 34 24 34z" opacity=".5"/>
    <path fill="url(#icon-1-e)" d="M6,48 C5.44771525,48 5,47.5522847 5,47 C5,46.4477153 5.44771525,46 6,46 L6,46 L21,46 L21,39 C21,38.4871642 21.3860402,38.0644928 21.8833789,38.0067277 L22,38 C22.5522847,38 23,38.4477153 23,39 L23,39 L23,46 L38,46 C38.5128358,46 38.9355072,46.3860402 38.9932723,46.8833789 L39,47 C39,47.5522847 38.5522847,48 38,48 L38,48 Z"/>
  </g>
</svg>
