<?xml version="1.0" encoding="UTF-8"?>
<svg width="153px" height="44px" viewBox="0 0 153 44" version="1.1" xmlns="http://www.w3.org/2000/svg" xmlns:xlink="http://www.w3.org/1999/xlink">
    <!-- Generator: Sketch 49 (51002) - http://www.bohemiancoding.com/sketch -->
    <title>logo</title>
    <desc>Created with Sketch.</desc>
    <defs>
        <linearGradient x1="93.7599649%" y1="6.24003508%" x2="0%" y2="100%" id="linearGradient-1">
            <stop stop-color="#F76262" offset="0%"></stop>
            <stop stop-color="#E1365F" offset="100%"></stop>
        </linearGradient>
    </defs>
    <g id="Page-1" stroke="none" stroke-width="1" fill="none" fill-rule="evenodd">
        <g id="home" transform="translate(-219.000000, -60.000000)">
            <g id="header" transform="translate(220.000000, 60.000000)">
                <g id="logo">
                    <path d="M48.8086,29.5222 C47.8646,29.0262 47.1326,28.3342 46.6126,27.4462 C46.0926,26.5582 45.8326,25.5302 45.8326,24.3622 L45.8326,18.9862 C45.8326,17.8182 46.0926,16.7862 46.6126,15.8902 C47.1326,14.9942 47.8646,14.3022 48.8086,13.8142 C49.7526,13.3262 50.8406,13.0822 52.0726,13.0822 C53.2886,13.0822 54.3646,13.3222 55.3006,13.8022 C56.2366,14.2822 56.9646,14.9342 57.4846,15.7582 C58.0046,16.5822 58.2646,17.4982 58.2646,18.5062 L58.2646,18.5542 C58.2646,18.8262 58.1286,18.9622 57.8566,18.9622 L55.2886,18.9622 C55.1606,18.9622 55.0606,18.9422 54.9886,18.9022 C54.9166,18.8622 54.8806,18.8182 54.8806,18.7702 L54.8806,18.6022 C54.8806,17.8662 54.6246,17.2462 54.1126,16.7422 C53.6006,16.2382 52.9206,15.9862 52.0726,15.9862 C51.2086,15.9862 50.5166,16.2542 49.9966,16.7902 C49.4766,17.3262 49.2166,18.0262 49.2166,18.8902 L49.2166,24.4582 C49.2166,25.3222 49.4966,26.0222 50.0566,26.5582 C50.6166,27.0942 51.3286,27.3622 52.1926,27.3622 C53.0246,27.3622 53.6886,27.1422 54.1846,26.7022 C54.6806,26.2622 54.9286,25.6502 54.9286,24.8662 L54.9286,23.8102 C54.9286,23.7142 54.8806,23.6662 54.7846,23.6662 L52.2406,23.6662 C51.9686,23.6662 51.8326,23.5302 51.8326,23.2582 L51.8326,21.2902 C51.8326,21.0182 51.9686,20.8822 52.2406,20.8822 L57.8566,20.8822 C58.1286,20.8822 58.2646,21.0182 58.2646,21.2902 L58.2646,24.3382 C58.2646,25.5542 58.0086,26.6102 57.4966,27.5062 C56.9846,28.4022 56.2606,29.0862 55.3246,29.5582 C54.3886,30.0302 53.3046,30.2662 52.0726,30.2662 C50.8406,30.2662 49.7526,30.0182 48.8086,29.5222" id="Fill-1" fill="#FFFFFF"></path>
                    <path d="M64.541,20.822 C64.197,21.07 63.961,21.418 63.833,21.866 C63.753,22.17 63.705,22.37 63.689,22.466 C63.673,22.562 63.713,22.61 63.809,22.61 L67.889,22.61 C67.969,22.61 68.009,22.578 68.009,22.514 C68.009,22.338 67.977,22.154 67.913,21.962 C67.769,21.498 67.521,21.13 67.169,20.858 C66.817,20.586 66.369,20.45 65.825,20.45 C65.313,20.45 64.885,20.574 64.541,20.822 M68.873,26.306 C68.969,26.194 69.073,26.138 69.185,26.138 C69.281,26.138 69.369,26.178 69.449,26.258 L70.817,27.578 C70.913,27.674 70.961,27.77 70.961,27.866 C70.961,27.978 70.929,28.074 70.865,28.154 C70.337,28.81 69.661,29.326 68.837,29.702 C68.013,30.078 67.113,30.266 66.137,30.266 C64.665,30.266 63.445,29.89 62.477,29.138 C61.509,28.386 60.857,27.354 60.521,26.042 C60.329,25.338 60.233,24.594 60.233,23.81 C60.233,22.882 60.321,22.098 60.497,21.458 C60.817,20.274 61.461,19.322 62.429,18.602 C63.397,17.882 64.545,17.522 65.873,17.522 C67.441,17.522 68.685,17.986 69.605,18.914 C70.525,19.842 71.121,21.146 71.393,22.826 C71.457,23.354 71.505,23.938 71.537,24.578 C71.537,24.85 71.401,24.986 71.129,24.986 L63.761,24.986 C63.665,24.986 63.617,25.034 63.617,25.13 C63.665,25.466 63.721,25.714 63.785,25.874 C63.945,26.37 64.261,26.75 64.733,27.014 C65.205,27.278 65.777,27.41 66.449,27.41 C67.505,27.362 68.313,26.994 68.873,26.306" id="Fill-3" fill="#FFFFFF"></path>
                    <path d="M80.0088,20.4498 L77.8488,20.4498 C77.7528,20.4498 77.7048,20.4978 77.7048,20.5938 L77.7048,25.5618 C77.7048,26.0898 77.8128,26.4778 78.0288,26.7258 C78.2448,26.9738 78.5928,27.0978 79.0728,27.0978 L79.7448,27.0978 C80.0168,27.0978 80.1528,27.2338 80.1528,27.5058 L80.1528,29.5698 C80.1528,29.8258 80.0168,29.9698 79.7448,30.0018 C79.1368,30.0338 78.6968,30.0498 78.4248,30.0498 C77.0968,30.0498 76.1048,29.8258 75.4488,29.3778 C74.7928,28.9298 74.4568,28.0978 74.4408,26.8818 L74.4408,20.5938 C74.4408,20.4978 74.3928,20.4498 74.2968,20.4498 L73.0728,20.4498 C72.8008,20.4498 72.6648,20.3138 72.6648,20.0418 L72.6648,18.1458 C72.6648,17.8738 72.8008,17.7378 73.0728,17.7378 L74.2968,17.7378 C74.3928,17.7378 74.4408,17.6898 74.4408,17.5938 L74.4408,14.8818 C74.4408,14.6098 74.5768,14.4738 74.8488,14.4738 L77.2968,14.4738 C77.5688,14.4738 77.7048,14.6098 77.7048,14.8818 L77.7048,17.5938 C77.7048,17.6898 77.7528,17.7378 77.8488,17.7378 L80.0088,17.7378 C80.2808,17.7378 80.4168,17.8738 80.4168,18.1458 L80.4168,20.0418 C80.4168,20.3138 80.2808,20.4498 80.0088,20.4498" id="Fill-5" fill="#FFFFFF"></path>
                    <path d="M85.8886,29.7136 L81.6646,13.7296 C81.6486,13.6976 81.6406,13.6576 81.6406,13.6096 C81.6406,13.3856 81.7686,13.2736 82.0246,13.2736 L84.7606,13.2736 C85.0006,13.2736 85.1446,13.3936 85.1926,13.6336 L87.4486,23.2096 C87.4646,23.2736 87.4966,23.3056 87.5446,23.3056 C87.5926,23.3056 87.6246,23.2736 87.6406,23.2096 L89.8006,13.6336 C89.8486,13.3936 89.9926,13.2736 90.2326,13.2736 L92.9466,13.2736 C93.2026,13.2736 93.3526,13.3936 93.4006,13.6336 L95.7526,23.2096 C95.7686,23.2736 95.7986,23.3056 95.8366,23.3056 C95.8786,23.3056 95.9046,23.2736 95.9206,23.2096 L98.0806,13.6336 C98.1306,13.3936 98.2746,13.2736 98.5126,13.2736 L101.1306,13.2736 C101.2746,13.2736 101.3746,13.3176 101.4286,13.4056 C101.4846,13.4936 101.4966,13.6016 101.4666,13.7296 L97.6006,29.7136 C97.5546,29.9536 97.4006,30.0736 97.1446,30.0736 L94.5046,30.0736 C94.2486,30.0736 94.0966,29.9536 94.0506,29.7136 L91.6486,19.5136 C91.6326,19.4496 91.6006,19.4176 91.5526,19.4176 C91.5046,19.4176 91.4726,19.4496 91.4566,19.5136 L89.2246,29.7136 C89.1766,29.9536 89.0326,30.0736 88.7926,30.0736 L86.3446,30.0736 C86.0886,30.0736 85.9366,29.9536 85.8886,29.7136" id="Fill-7" fill="#FFFFFF"></path>
                    <path d="M112.7216,13.2742 L115.2896,13.2742 C115.5616,13.2742 115.6976,13.4102 115.6976,13.6822 L115.6976,29.6662 C115.6976,29.9382 115.5616,30.0742 115.2896,30.0742 L112.7216,30.0742 C112.4476,30.0742 112.3136,29.9382 112.3136,29.6662 L112.3136,23.1862 C112.3136,23.0902 112.2636,23.0422 112.1696,23.0422 L106.9136,23.0422 C106.8176,23.0422 106.7676,23.0902 106.7676,23.1862 L106.7676,29.6662 C106.7676,29.9382 106.6336,30.0742 106.3616,30.0742 L103.7936,30.0742 C103.5196,30.0742 103.3856,29.9382 103.3856,29.6662 L103.3856,13.6822 C103.3856,13.4102 103.5196,13.2742 103.7936,13.2742 L106.3616,13.2742 C106.6336,13.2742 106.7676,13.4102 106.7676,13.6822 L106.7676,19.9942 C106.7676,20.0902 106.8176,20.1382 106.9136,20.1382 L112.1696,20.1382 C112.2636,20.1382 112.3136,20.0902 112.3136,19.9942 L112.3136,13.6822 C112.3136,13.4102 112.4476,13.2742 112.7216,13.2742" id="Fill-9" fill="#FFFFFF"></path>
                    <path d="M126.5694,26.5934 C127.1114,26.0334 127.3834,25.2894 127.3834,24.3614 L127.3834,19.0814 C127.3834,18.1534 127.1154,17.4054 126.5814,16.8374 C126.0434,16.2694 125.3294,15.9854 124.4334,15.9854 C123.5514,15.9854 122.8454,16.2694 122.3094,16.8374 C121.7734,17.4054 121.5054,18.1534 121.5054,19.0814 L121.5054,24.3614 C121.5054,25.2894 121.7734,26.0334 122.3094,26.5934 C122.8454,27.1534 123.5514,27.4334 124.4334,27.4334 C125.3114,27.4334 126.0254,27.1534 126.5694,26.5934 M121.1314,29.5694 C120.1814,29.0574 119.4414,28.3434 118.9134,27.4214 C118.3834,26.5014 118.1194,25.4414 118.1194,24.2414 L118.1194,19.1054 C118.1194,17.9214 118.3834,16.8734 118.9134,15.9614 C119.4414,15.0494 120.1814,14.3414 121.1314,13.8374 C122.0854,13.3334 123.1854,13.0814 124.4334,13.0814 C125.6954,13.0814 126.8034,13.3334 127.7574,13.8374 C128.7074,14.3414 129.4474,15.0494 129.9774,15.9614 C130.5054,16.8734 130.7694,17.9214 130.7694,19.1054 L130.7694,24.2414 C130.7694,25.4414 130.5054,26.5074 129.9774,27.4334 C129.4474,28.3614 128.7074,29.0774 127.7574,29.5814 C126.8034,30.0854 125.6954,30.3374 124.4334,30.3374 C123.1854,30.3374 122.0854,30.0814 121.1314,29.5694" id="Fill-11" fill="#FFFFFF"></path>
                    <path d="M133.3604,29.6658 L133.3604,13.6818 C133.3604,13.4098 133.4964,13.2738 133.7684,13.2738 L136.3364,13.2738 C136.6084,13.2738 136.7444,13.4098 136.7444,13.6818 L136.7444,29.6658 C136.7444,29.9378 136.6084,30.0738 136.3364,30.0738 L133.7684,30.0738 C133.4964,30.0738 133.3604,29.9378 133.3604,29.6658" id="Fill-13" fill="#FFFFFF"></path>
                    <path d="M142.0732,29.6424 C141.1272,29.2264 140.3992,28.6424 139.8872,27.8904 C139.3752,27.1384 139.1192,26.2584 139.1192,25.2504 L139.1192,24.8424 C139.1192,24.5704 139.2572,24.4344 139.5292,24.4344 L142.0472,24.4344 C142.3212,24.4344 142.4552,24.5384 142.4552,24.7464 L142.4552,25.0824 C142.4552,25.7224 142.7492,26.2624 143.3332,26.7024 C143.9172,27.1424 144.6812,27.3624 145.6232,27.3624 C146.4712,27.3624 147.1012,27.1824 147.5092,26.8224 C147.9172,26.4624 148.1192,26.0184 148.1192,25.4904 C148.1192,25.1064 147.9932,24.7824 147.7372,24.5184 C147.4792,24.2544 147.1352,24.0224 146.7032,23.8224 C146.2732,23.6224 145.5772,23.3464 144.6152,22.9944 C143.5292,22.6264 142.6152,22.2504 141.8792,21.8664 C141.1432,21.4824 140.5212,20.9584 140.0092,20.2944 C139.4972,19.6304 139.2412,18.8104 139.2412,17.8344 C139.2412,16.8744 139.4892,16.0344 139.9852,15.3144 C140.4792,14.5944 141.1732,14.0424 142.0592,13.6584 C142.9472,13.2744 143.9592,13.0824 145.0972,13.0824 C146.3112,13.0824 147.4012,13.2984 148.3612,13.7304 C149.3212,14.1624 150.0672,14.7664 150.6052,15.5424 C151.1392,16.3184 151.4092,17.2184 151.4092,18.2424 L151.4092,18.4824 C151.4092,18.7544 151.2732,18.8904 151.0012,18.8904 L148.4812,18.8904 C148.2072,18.8904 148.0732,18.8104 148.0732,18.6504 L148.0732,18.4104 C148.0732,17.7384 147.7952,17.1664 147.2452,16.6944 C146.6932,16.2224 145.9372,15.9864 144.9752,15.9864 C144.2072,15.9864 143.6152,16.1464 143.1992,16.4664 C142.7832,16.7864 142.5772,17.2264 142.5772,17.7864 C142.5772,18.1864 142.6972,18.5224 142.9372,18.7944 C143.1772,19.0664 143.5392,19.3144 144.0292,19.5384 C144.5172,19.7624 145.2732,20.0504 146.2952,20.4024 C147.4172,20.8184 148.3032,21.1824 148.9592,21.4944 C149.6152,21.8064 150.2032,22.2824 150.7232,22.9224 C151.2452,23.5624 151.5052,24.3864 151.5052,25.3944 C151.5052,26.3704 151.2532,27.2264 150.7492,27.9624 C150.2452,28.6984 149.5312,29.2664 148.6132,29.6664 C147.6932,30.0664 146.6092,30.2664 145.3612,30.2664 C144.1132,30.2664 143.0172,30.0584 142.0732,29.6424" id="Fill-15" fill="#FFFFFF"></path>
                    <g id="Group-10" stroke="url(#linearGradient-1)" stroke-linecap="round" stroke-width="1.5">
                        <path d="M5.378,12.7516 C6.966,9.2396 10.098,6.5756 13.908,5.6236 C14.9,5.3756 15.938,5.2436 17.008,5.2436 C18.142,5.2436 19.242,5.3916 20.29,5.6696 C24.114,6.6856 27.232,9.4316 28.756,13.0216 C29.404,14.5496 29.764,16.2336 29.764,17.9996" id="Stroke-20"></path>
                        <path d="M8.504,17.9998 C8.504,13.3038 12.312,9.4958 17.008,9.4958 C18.77,9.4958 20.406,10.0318 21.762,10.9478 C24.024,12.4758 25.512,15.0638 25.512,17.9998" id="Stroke-22"></path>
                        <polyline id="Stroke-24" points="13.0322 38.0846 17.0082 42.0606 24.3502 34.7166"></polyline>
                        <path d="M2.2802,9.4928 C-0.8918,14.9708 -0.7538,21.8408 2.6922,27.1988 C3.3382,28.2028 4.1022,29.1548 4.9822,30.0348 L10.3762,35.4288" id="Stroke-26"></path>
                        <path d="M29.9052,6.9186 C29.6292,6.5986 29.3392,6.2866 29.0332,5.9806 C22.7312,-0.3234 12.7092,-0.6434 6.0292,5.0166 C5.6692,5.3226 5.3212,5.6426 4.9812,5.9806" id="Stroke-28"></path>
                        <path d="M29.0342,30.034 C29.5142,29.556 29.9582,29.054 30.3682,28.534 C34.3642,23.478 35.0762,16.674 32.5062,10.992" id="Stroke-30"></path>
                        <path d="M29.7314,18.907 C29.9834,15.347 28.7494,11.701 26.0274,8.981 C21.0454,3.999 12.9694,3.999 7.9874,8.981 C3.0074,13.961 3.0074,22.037 7.9874,27.021" id="Stroke-32"></path>
                        <path d="M20.3398,32.7078 L22.0058,31.0418 L24.2558,28.7918 L26.0278,27.0198 C27.0038,26.0438 27.7858,24.9518 28.3798,23.7858" id="Stroke-34"></path>
                        <path d="M10.8554,29.8864 L15.8134,34.8444" id="Stroke-36"></path>
                        <path d="M23.0214,11.987 C19.6994,8.665 14.3154,8.665 10.9954,11.987 C7.6734,15.307 7.6734,20.693 10.9954,24.013 L12.2154,25.235" id="Stroke-38"></path>
                        <polyline id="Stroke-40" points="14.9658 27.9842 17.0078 30.0262 19.1038 27.9302 19.8118 27.2222 21.2598 25.7742 23.0218 24.0142"></polyline>
                        <path d="M14.001,21.2204 C12.341,19.5604 12.341,16.8684 14.001,15.2084 C15.663,13.5484 18.353,13.5484 20.015,15.2084 C21.675,16.8684 21.675,19.5604 20.015,21.2204 C19.695,21.5404 19.337,21.7984 18.957,21.9944" id="Stroke-42"></path>
                    </g>
                </g>
            </g>
        </g>
    </g>
</svg>