<svg xmlns="http://www.w3.org/2000/svg" width="780" height="856" viewBox="0 0 780 856">
  <defs>
    <linearGradient id="fingerprint-a" x1="61.821%" x2="36.493%" y1="6.24%" y2="100%">
      <stop offset="0%" stop-color="#F76262"/>
      <stop offset="100%" stop-color="#E1365F"/>
    </linearGradient>
    <linearGradient id="fingerprint-b" x1="65.762%" x2="31.991%" y1="6.24%" y2="100%">
      <stop offset="0%" stop-color="#F76262"/>
      <stop offset="100%" stop-color="#E1365F"/>
    </linearGradient>
    <linearGradient id="fingerprint-c" x1="72.586%" x2="24.194%" y1="6.24%" y2="100%">
      <stop offset="0%" stop-color="#F76262"/>
      <stop offset="100%" stop-color="#E1365F"/>
    </linearGradient>
    <linearGradient id="fingerprint-d" x1="59.771%" x2="38.836%" y1="6.24%" y2="100%">
      <stop offset="0%" stop-color="#F76262"/>
      <stop offset="100%" stop-color="#E1365F"/>
    </linearGradient>
    <linearGradient id="fingerprint-e" x1="67.279%" x2="30.257%" y1="6.24%" y2="100%">
      <stop offset="0%" stop-color="#F76262"/>
      <stop offset="100%" stop-color="#E1365F"/>
    </linearGradient>
    <linearGradient id="fingerprint-f" x1="53.474%" x2="46.03%" y1="6.24%" y2="100%">
      <stop offset="0%" stop-color="#F76262"/>
      <stop offset="100%" stop-color="#E1365F"/>
    </linearGradient>
    <linearGradient id="fingerprint-g" x1="83.54%" x2="11.677%" y1="6.24%" y2="100%">
      <stop offset="0%" stop-color="#F76262"/>
      <stop offset="100%" stop-color="#E1365F"/>
    </linearGradient>
    <linearGradient id="fingerprint-h" x1="93.76%" x2="0%" y1="41.545%" y2="59.661%">
      <stop offset="0%" stop-color="#F76262"/>
      <stop offset="100%" stop-color="#E1365F"/>
    </linearGradient>
    <linearGradient id="fingerprint-i" x1="56.509%" x2="42.563%" y1="6.24%" y2="100%">
      <stop offset="0%" stop-color="#F76262"/>
      <stop offset="100%" stop-color="#E1365F"/>
    </linearGradient>
    <linearGradient id="fingerprint-j" x1="82.856%" x2="12.458%" y1="6.24%" y2="100%">
      <stop offset="0%" stop-color="#F76262"/>
      <stop offset="100%" stop-color="#E1365F"/>
    </linearGradient>
    <linearGradient id="fingerprint-k" x1="93.76%" x2="0%" y1="35.774%" y2="66.255%">
      <stop offset="0%" stop-color="#F76262"/>
      <stop offset="100%" stop-color="#E1365F"/>
    </linearGradient>
    <linearGradient id="fingerprint-l" x1="93.76%" x2="0%" y1="18.887%" y2="85.55%">
      <stop offset="0%" stop-color="#F76262"/>
      <stop offset="100%" stop-color="#E1365F"/>
    </linearGradient>
    <linearGradient id="fingerprint-m" x1="68.031%" x2="29.398%" y1="6.24%" y2="100%">
      <stop offset="0%" stop-color="#F76262"/>
      <stop offset="100%" stop-color="#E1365F"/>
    </linearGradient>
    <linearGradient id="fingerprint-n" x1="93.76%" x2="0%" y1="34.079%" y2="68.191%">
      <stop offset="0%" stop-color="#F76262"/>
      <stop offset="100%" stop-color="#E1365F"/>
    </linearGradient>
    <linearGradient id="fingerprint-o" x1="93.76%" x2="0%" y1="22.937%" y2="80.922%">
      <stop offset="0%" stop-color="#F76262"/>
      <stop offset="100%" stop-color="#E1365F"/>
    </linearGradient>
    <linearGradient id="fingerprint-p" x1="93.76%" x2="0%" y1="44.549%" y2="56.228%">
      <stop offset="0%" stop-color="#F76262"/>
      <stop offset="100%" stop-color="#E1365F"/>
    </linearGradient>
    <linearGradient id="fingerprint-q" x1="93.76%" x2="0%" y1="33.194%" y2="69.203%">
      <stop offset="0%" stop-color="#F76262"/>
      <stop offset="100%" stop-color="#E1365F"/>
    </linearGradient>
    <linearGradient id="fingerprint-r" x1="93.76%" x2="0%" y1="48.423%" y2="51.802%">
      <stop offset="0%" stop-color="#F76262"/>
      <stop offset="100%" stop-color="#E1365F"/>
    </linearGradient>
  </defs>
  <g fill="none" fill-rule="evenodd" transform="translate(-1)">
    <path fill="url(#fingerprint-a)" d="M400.824176,497 C375.913373,497 355.646343,517.283835 355.646343,542.215295 L355.646343,608.062344 C355.646343,689.127296 325.804418,766.954397 271.620356,827.20861 L198.493474,908.535004 C196.755324,910.463637 195.877206,912.951353 196.013847,915.543646 C196.150488,918.131917 197.283802,920.509023 199.208828,922.24057 C200.993194,923.851451 203.295992,924.734319 205.695242,924.734319 C208.44614,924.734319 211.076474,923.563866 212.909066,921.524622 L286.035949,840.200239 C343.435086,776.388412 375.045303,693.949886 375.045303,608.064355 L375.045303,542.217306 C375.045303,527.99288 386.609526,516.419067 400.824176,516.419067 C415.036818,516.419067 426.599031,527.99288 426.599031,542.217306 L426.599031,615.153441 C426.599031,714.535384 389.814554,809.754375 323.023378,883.273725 L251.743155,961.758452 C248.14428,965.722307 248.435646,971.880259 252.390188,975.484129 C254.174555,977.103055 256.493428,978 258.906744,978 C261.675727,978 264.227693,976.87178 266.092436,974.818459 L337.37266,896.337754 C407.423118,819.230623 446,719.372051 446,615.15143 L446,542.215295 C446,517.283835 425.73297,497 400.824176,497"/>
    <path fill="url(#fingerprint-b)" d="M401.018085,424.779573 C336.919949,424.779573 284.775347,476.961549 284.775347,541.099127 L284.775347,607.001867 C284.775347,670.539652 261.381176,731.549451 218.901176,778.784143 L166.867199,836.650062 C165.129381,838.58228 164.248403,841.072024 164.385176,843.664418 C164.519938,846.256811 165.656358,848.635855 167.581233,850.368813 C169.375369,851.981008 171.682403,852.868621 174.087994,852.868621 C176.877756,852.868621 179.434199,851.729417 181.286665,849.662346 L233.330699,791.786363 C279.028881,740.973042 304.193051,675.352084 304.193051,607.00388 L304.193051,541.10114 C304.193051,487.677311 347.628449,444.214471 401.018085,444.214471 C454.40571,444.214471 497.841108,487.677311 497.841108,541.10114 L497.841108,614.098745 C497.841108,731.255593 454.462028,843.535603 375.69904,930.253972 L315.494903,996.519003 C311.894562,1000.48408 312.18621,1006.64705 316.146585,1010.25587 C317.930665,1011.8741 320.251778,1012.77379 322.665415,1012.77379 C325.441097,1012.77379 327.995528,1011.64465 329.864085,1009.58966 L390.070233,943.332676 C472.089619,853.027626 517.260824,736.102241 517.260824,614.096732 L517.260824,541.099127 C517.260824,476.961549 465.11421,424.779573 401.018085,424.779573" opacity=".3"/>
    <path fill="url(#fingerprint-c)" d="M400.54486,356 C297.183195,356 213.091734,439.815979 213.091734,542.839035 L213.091734,608.545657 C213.091734,654.356871 196.157067,698.349925 165.40447,732.419357 L118.498404,784.373384 C116.756817,786.297904 115.876963,788.778308 116.013874,791.365073 C116.150785,793.947823 117.28634,796.321867 119.215173,798.047714 C121.007094,799.659174 123.318472,800.544172 125.724479,800.544172 C128.517058,800.544172 131.078097,799.406317 132.93646,797.343328 L179.848567,745.38328 C213.822596,707.75178 232.53509,659.155128 232.53509,608.547664 L232.53509,542.841041 C232.53509,450.500179 307.904524,375.377654 400.548887,375.377654 C493.191237,375.377654 568.56067,450.500179 568.56067,542.841041 L568.56067,615.619624 C568.56067,750.111299 518.570082,878.983936 427.79415,978.505127 L411.125252,996.791082 C407.525301,1000.74648 407.817243,1006.89331 411.783632,1010.48347 C413.57958,1012.10497 415.894985,1013 418.311059,1013 C421.093571,1013 423.652596,1011.87419 425.517,1009.83126 L442.177845,991.547316 C536.213464,888.448002 588,754.941665 588,615.619624 L588,542.839035 C588,439.815979 503.908539,356 400.54486,356" opacity=".5"/>
    <path fill="url(#fingerprint-d)" d="M631.706359,763.292605 C630.964527,763.104934 630.131734,763.002018 629.307027,763 C624.825714,763.002018 620.916441,765.984566 619.802682,770.252556 C613.548652,794.110921 605.774575,817.803814 596.69269,840.673378 C595.730531,843.090897 595.772979,845.734427 596.805885,848.123694 C597.840811,850.514979 599.742893,852.357379 602.162438,853.311875 C603.314603,853.767934 604.525386,854 605.754361,854 C609.784915,854 613.352582,851.580463 614.840289,847.837144 C624.223355,824.208826 632.244036,799.763233 638.675943,775.188491 C639.338943,772.668056 638.977123,770.044706 637.659208,767.796696 C636.341294,765.550704 634.226971,763.95046 631.706359,763.292605" opacity=".1"/>
    <path fill="url(#fingerprint-e)" d="M151.28905,597 C145.934753,597 141.5781,601.33083 141.5781,606.653391 C141.5781,634.841772 131.132996,661.900459 112.169692,682.848798 L70.4978902,728.886355 C68.7580453,730.803837 67.8770602,733.277168 68.0138341,735.852472 C68.150608,738.425777 69.2850272,740.793137 71.2119307,742.512672 C73.0040716,744.116239 75.3071034,745 77.7026587,745 C80.498479,745 83.060979,743.866306 84.9174841,741.810862 L126.599343,695.763307 C148.782869,671.271927 161,639.62448 161,606.653391 C161,601.33083 156.643348,597 151.28905,597" opacity=".3"/>
    <path fill="url(#fingerprint-f)" d="M573.20388,349.455273 C571.435573,347.876022 569.130134,347 566.728132,347 C563.959996,347 561.316587,348.16736 559.473846,350.202704 C555.907054,354.168914 556.232954,360.32116 560.220196,363.897579 C610.652173,409.175457 639.576779,473.848381 639.576779,541.33422 L639.576779,614.20478 C639.576779,642.137021 637.64351,670.320416 633.831287,697.971366 C633.101031,703.269691 636.824737,708.174209 642.12966,708.901548 L642.177941,708.909585 L642.230246,708.915613 C642.602416,708.97388 643.012808,709 643.479529,709 C648.293591,709 652.419642,705.403488 653.075465,700.633588 C657.008391,672.112644 659,643.033136 659,614.20478 L659,541.33422 C659,468.343106 627.72972,398.406013 573.20388,349.455273"/>
    <path fill="url(#fingerprint-g)" d="M151.690624,552 C157.033714,552 161.381247,547.653039 161.381247,542.308184 C161.381247,424.490472 249.21507,323.026572 365.691229,306.295288 C370.974104,305.530303 374.661278,300.599062 373.90056,295.306411 C373.220129,290.571937 369.079334,287 364.270152,287 C363.816531,287 363.356889,287.032125 362.905275,287.094368 C236.98136,305.203026 142,414.921134 142,542.306176 C142,547.651031 146.347533,552 151.690624,552" opacity=".4"/>
    <path fill="url(#fingerprint-h)" d="M504.02435,326.086929 C505.340633,326.689083 506.762217,327 508.216203,327 C512.031397,327 515.415255,324.925911 517.051496,321.584543 C519.370178,316.855857 517.290451,311.172775 512.418182,308.911743 C488.887103,298.027697 463.904063,290.691642 438.16568,287.106263 C437.663468,287.035421 437.173406,287 436.693469,287 C431.829299,287.001968 427.793375,290.435824 427.100808,295.168446 C426.331289,300.353668 430.051306,305.176809 435.391362,305.928519 C459.135071,309.224627 482.230764,316.005756 504.02435,326.086929"/>
    <path fill="url(#fingerprint-i)" d="M177.995699,322.432518 C177.919658,319.840437 176.843074,317.431492 174.966056,315.652455 C173.163078,313.939831 170.815804,313 168.350467,313 C165.661008,313 163.161652,314.086742 161.312649,316.058977 C103.729412,377.469962 72.0182101,457.683596 72.0182101,541.924213 L72.0182101,607.817002 C72.0182101,618.595873 68.0700684,628.948097 60.9021801,636.96785 L40.4831034,659.783395 C38.7541656,661.713368 37.8776901,664.202812 38.0137639,666.796905 C38.1498377,669.386974 39.280451,671.765731 41.1954899,673.498481 C42.9784571,675.114507 45.2697,676 47.6529929,676 C50.4365028,676 52.9858858,674.860933 54.8328877,672.790086 L75.2559665,649.966492 C85.6295938,638.382627 91.3406919,623.413763 91.3406919,607.817002 L91.3406919,541.924213 C91.3406919,462.67456 121.180879,387.190266 175.366273,329.377604 C177.137234,327.487881 178.07174,325.024599 177.995699,322.432518" opacity=".1"/>
    <path fill="url(#fingerprint-j)" d="M401.528674,213 C395.54597,213 389.380142,213.164946 383.20224,213.490816 C380.608326,213.627601 378.225709,214.766134 376.491067,216.695203 C374.756425,218.62226 373.877029,221.112549 374.013869,223.705426 C374.283523,228.788593 378.557746,232.924323 383.542327,232.924323 C383.737524,232.924323 383.934734,232.916277 384.131944,232.904208 C390.325945,232.576326 395.986673,232.419426 401.528674,232.419426 C572.485504,232.419426 711.568788,371.447148 711.568788,542.335683 L711.568788,615.288275 C711.568788,620.643 715.92753,625 721.284394,625 C723.882333,625 726.321296,623.990206 728.156555,622.157691 C729.989802,620.325176 731,617.887188 731,615.292299 L731,542.337695 C731,360.73971 583.199234,213 401.528674,213" opacity=".1"/>
    <path fill="url(#fingerprint-k)" d="M218.657524,289 C220.630739,289 222.530059,288.396178 224.149773,287.255401 C252.232139,267.416409 283.128534,252.594408 315.978172,243.204776 C321.088959,241.735746 324.080737,236.31756 322.636774,231.126313 C321.474415,226.925902 317.653807,224 313.34389,224 C312.463133,224 311.578382,224.123601 310.717596,224.366751 C275.856797,234.350073 243.015147,250.102123 213.127329,271.181178 C208.767483,274.261074 207.687007,280.37629 210.726717,284.805667 C212.528175,287.433711 215.491992,289 218.657524,289" opacity=".3"/>
    <path fill="url(#fingerprint-l)" d="M457.346764,164.767753 C462.157669,164.767753 466.302294,161.17889 466.990716,156.419263 C467.751604,151.113549 464.057876,146.16652 458.75179,145.396758 C439.832251,142.67438 420.481945,141.294048 401.244363,141.294048 C186.450531,141.294048 10.6471733,309.458788 1.00925948,524.137694 C0.892509483,526.735136 1.79430259,529.223764 3.54555259,531.144138 C5.29680259,533.060482 7.68615172,534.180869 10.276794,534.293713 L10.3693888,534.297743 L10.4599707,534.305804 C10.4841259,534.305804 10.510294,534.305804 10.5404879,534.305804 C10.5988629,534.305804 10.6673026,534.305804 10.7357422,534.305804 C15.937156,534.305804 20.1945052,530.22526 20.4259922,525.01627 C29.5928802,320.75333 196.867449,160.747662 401.244363,160.747662 C419.588203,160.747662 438.008535,162.069556 455.990048,164.673044 C456.424841,164.733496 456.887816,164.767753 457.346764,164.767753"/>
    <path fill="url(#fingerprint-m)" d="M695.7942,272.286835 C693.9402,270.273438 691.4142,269.161771 688.6762,269.161771 C686.2582,269.161771 683.9422,270.067499 682.1542,271.711007 C678.2402,275.311929 677.9842,281.436095 681.5822,285.360919 C717.8322,324.805106 744.8162,370.373459 761.7842,420.796357 C763.1082,424.721182 766.7862,427.362391 770.9342,427.362391 C771.9882,427.362391 773.0362,427.192442 774.0522,426.856542 C779.0582,425.165049 781.7862,419.672694 780.0862,414.626205 C762.2522,361.634076 733.8922,313.744419 695.7942,272.286835" opacity=".3"/>
    <path fill="url(#fingerprint-n)" d="M639.111134,221.50212 C605.811347,196.507736 569.041455,176.996291 529.813821,163.507418 C528.829522,163.177194 527.769045,163 526.706563,163 C522.546846,163 518.858229,165.633743 517.523111,169.554154 C515.793069,174.630352 518.495382,180.171683 523.547182,181.907376 C560.850321,194.737813 595.834041,213.292815 627.530081,237.058923 C629.218024,238.33351 631.206669,239 633.299558,239 C636.394789,239 639.227405,237.576409 641.073718,235.095697 C642.621333,233.015685 643.268846,230.456443 642.89798,227.887134 C642.525109,225.319839 641.179966,223.052565 639.111134,221.50212" opacity=".5"/>
    <path fill="url(#fingerprint-o)" d="M31.7036519,264.928132 C33.4289997,266.285909 35.4910008,267 37.6692273,267 C40.6690481,267 43.450445,265.640211 45.3020378,263.270637 C93.3131969,201.730108 156.501806,153.461607 228.036609,123.687047 C232.958159,121.635294 235.304712,115.942684 233.26275,111.002384 C231.75783,107.355493 228.249021,105 224.325408,105 C223.054943,105 221.804517,105.25144 220.608195,105.748286 C145.99542,136.80821 80.1015615,187.142545 30.0564558,251.308111 C28.4633646,253.349806 27.7599998,255.89036 28.0726064,258.465109 C28.3832091,261.039858 29.6737131,263.335005 31.7036519,264.928132" opacity=".1"/>
    <path fill="url(#fingerprint-p)" d="M285.450011,88.0522067 C284.087306,90.2659666 283.666618,92.8752569 284.26645,95.4038267 C285.307098,99.8232744 289.183863,102.900744 293.698704,102.900744 C294.455539,102.900744 295.220425,102.809933 295.973234,102.634366 C329.954309,94.5724055 365.030379,90.48593 400.215143,90.48593 C524.275655,90.48593 640.073384,140.032176 726.274043,229.999215 C728.125873,231.936507 730.60974,233 733.282816,233 C735.804927,233 738.204255,232.033372 740.03193,230.279719 C743.880515,226.566576 744.005312,220.385403 740.295614,216.512837 C650.405386,122.677267 529.631871,71 400.219169,71 C363.528787,71 326.945086,75.2701147 291.48456,83.6892634 C288.954397,84.2886132 286.812716,85.8384469 285.450011,88.0522067"/>
    <path fill="url(#fingerprint-q)" d="M593.076823,55.9364258 C610.275061,62.9234892 627.357526,70.9696914 643.853143,79.8575125 C645.260381,80.6178156 646.765426,81 648.344327,81 C651.929289,81 655.202863,78.9955646 656.887555,75.7673258 C659.364692,70.9981519 657.566223,65.0458326 652.869443,62.5108113 C635.763025,53.2814637 618.041814,44.9384587 600.200838,37.7155794 C599.031134,37.2358159 597.839473,37 596.629848,37 C592.667626,37 589.154523,39.4313436 587.679419,43.1962669 C585.721263,48.2175199 588.140514,53.9380891 593.076823,55.9364258"/>
    <path fill="url(#fingerprint-r)" d="M169.700593,71 C171.153389,71 172.570065,70.6769845 173.914502,70.0388802 C244.768365,36.2629508 320.829414,19.1332198 399.97063,19.1332198 C441.224795,19.1332198 482.298364,23.9269287 522.047561,33.3795914 C522.767939,33.5480351 523.534469,33.6372111 524.292973,33.6372111 C528.797842,33.6372111 532.676644,30.6250419 533.730121,26.3168472 C534.980247,21.186251 531.767644,16.0021492 526.568483,14.761611 C485.344418,4.96809758 442.747822,0 399.97063,0 C317.899744,0 239.00735,17.7717986 165.484678,52.8199732 C163.150976,53.9336832 161.397187,55.873758 160.544372,58.285475 C159.693564,60.6952104 159.844061,63.2892431 160.96777,65.5860221 C162.599154,68.9271519 165.944195,71 169.700593,71"/>
  </g>
</svg>
