<svg xmlns="http://www.w3.org/2000/svg" xmlns:xlink="http://www.w3.org/1999/xlink" width="95" height="32" viewBox="0 0 95 32">
  <defs>
    <polygon id="logo-perfops-a" points="0 0 26.982 0 26.982 18.383 0 18.383"/>
    <polygon id="logo-perfops-c" points="0 .444 0 22.985 27.943 22.985 27.943 .444"/>
    <polygon id="logo-perfops-e" points="0 13.651 0 .464 27.937 .464 27.937 13.651"/>
  </defs>
  <g fill="none" fill-rule="evenodd">
    <mask id="logo-perfops-b" fill="#fff">
      <use xlink:href="#logo-perfops-a"/>
    </mask>
    <path fill="#FFF" d="M26.6116631,6.95816864 L15.3032081,0.360185008 C14.4790235,-0.120467283 13.4641794,-0.120467283 12.6399948,0.360185008 L1.3315398,6.95816864 C0.507355196,7.43882093 0.000267592403,8.32711504 0.000267592403,9.28909565 L0.000267592403,11.8566307 C3.50974196,11.8566307 5.59763169,13.6879767 7.44067436,15.3036715 C9.24692308,16.8875932 10.9534936,18.3829559 13.971267,18.3829559 C16.7769733,18.3829559 18.3979143,15.8803191 20.1138506,13.2309853 C21.7970068,10.6316772 23.691561,7.70720203 26.9822786,7.22384565 C26.8672139,7.12582232 26.7447903,7.03523525 26.6116631,6.95816864" mask="url(#logo-perfops-b)" opacity=".2"/>
    <g transform="translate(0 8.788)">
      <mask id="logo-perfops-d" fill="#fff">
        <use xlink:href="#logo-perfops-c"/>
      </mask>
      <path fill="#FFF" d="M27.9371821,0.444214656 C25.4619523,0.804534869 23.3727247,3.11450516 21.7925915,5.55359583 C19.9502178,8.39830025 17.8616591,11.6229295 13.9715346,11.6229295 C10.2038335,11.6229295 8.03700403,9.72330516 6.12572529,8.04676834 C4.31947657,6.46352268 2.76008184,5.09660435 -0.000133796202,5.09660435 L-0.000133796202,13.6962918 C-0.000133796202,14.6569204 0.507622789,15.5458905 1.33180739,16.0265428 L12.6402623,22.6245264 C13.463778,23.1051787 14.4792911,23.1051787 15.3034757,22.6245264 L26.6119307,16.0265428 C27.4354463,15.5458905 27.9432029,14.6569204 27.9432029,13.6962918 L27.9432029,0.501000581 C27.9432029,0.481395917 27.9371821,0.463143298 27.9371821,0.444214656" mask="url(#logo-perfops-d)" opacity=".5"/>
    </g>
    <g transform="translate(0 6.76)">
      <mask id="logo-perfops-f" fill="#fff">
        <use xlink:href="#logo-perfops-e"/>
      </mask>
      <path fill="#FFF" d="M27.6990248,1.4133611 C27.5344555,1.04898475 27.2902774,0.723817733 26.9825462,0.463548912 C23.6911596,0.947581318 21.7972744,3.87138042 20.1134492,6.47068852 C18.3975129,9.12002232 16.7765719,11.6233352 13.9715346,11.6233352 C10.9530922,11.6233352 9.2465217,10.1272965 7.44094195,8.54337477 C5.59789928,6.92768001 3.50934057,5.09633394 -0.000133796202,5.09633394 L-0.000133796202,6.11036831 L-0.000133796202,7.12440268 C2.76008184,7.12440268 4.31947657,8.49199703 6.12505631,10.0752427 C8.03700403,11.7511035 10.2038335,13.6514039 13.9715346,13.6514039 C17.8616591,13.6514039 19.9502178,10.4260986 21.7925915,7.58139417 C23.3727247,5.14297952 25.4619523,2.83300922 27.9371821,2.47201299 C27.9284853,2.10087641 27.8475386,1.74123222 27.6990248,1.4133611" mask="url(#logo-perfops-f)"/>
    </g>
    <path fill="#FFF" d="M39.8210945 14.9549113C41.0473367 14.9549113 41.6594543 14.4208532 41.6594543 13.3513849 41.6594543 12.8004263 41.5075956 12.3934605 41.2038782 12.1284595 40.9001609 11.8641345 40.4392329 11.730958 39.8210945 11.730958L37.4950475 11.730958 37.4950475 14.9549113 39.8210945 14.9549113zM35.0439011 9.84214999L40.1355156 9.84214999C41.3403504 9.84214999 42.2775928 10.1490644 42.9479117 10.7628932 43.6188997 11.376722 43.9540592 12.2345951 43.9540592 13.3351604 43.9540592 14.4357257 43.6188997 15.2942748 42.9479117 15.9074276 42.2775928 16.5212564 41.3403504 16.8281708 40.1355156 16.8281708L37.4950475 16.8281708 37.4950475 21.0370894 35.0439011 21.0370894 35.0439011 9.84214999zM47.4506222 15.1378431C47.1836988 15.429209 47.0184605 15.8496952 46.9555763 16.3999779L49.9880672 16.3999779C49.957294 15.8388788 49.818146 15.4156885 49.571292 15.1297308 49.325776 14.8437731 48.9772369 14.7011323 48.5270126 14.7011323 48.0767884 14.7011323 47.7175456 14.8464772 47.4506222 15.1378431L47.4506222 15.1378431zM51.9836375 17.5911302L46.9555763 17.5911302C47.0284952 18.2157754 47.2305274 18.6687108 47.5610041 18.9492603 47.8908117 19.2298098 48.3590984 19.3697465 48.9672021 19.3697465 49.3652458 19.3697465 49.7606136 19.3034963 50.1533055 19.1709958 50.5459973 19.0391713 50.9045711 18.8512369 51.2296959 18.6078687L51.8578691 20.211395C51.4812328 20.5074931 51.0229808 20.740721 50.4831131 20.9097267 49.9432454 21.0794085 49.4020398 21.1639113 48.8568203 21.1639113 47.5576592 21.1639113 46.5334492 20.8015631 45.7848595 20.0761905 45.0356008 19.3508179 44.6609714 18.3638244 44.6609714 17.1145341 44.6609714 16.3208832 44.8235338 15.6171433 45.1486585 15.0026385 45.4731143 14.3888097 45.9233386 13.9101855 46.4993312 13.5654138 47.0759928 13.2213181 47.7302563 13.0496083 48.4641284 13.0496083 49.5425258 13.0496083 50.3988215 13.4045203 51.0330155 14.1129923 51.6672095 14.8228164 51.9836375 15.7861491 51.9836375 17.0036663L51.9836375 17.5911302zM58.9294666 15.0183222L57.5935115 15.1616391C56.9338963 15.2251852 56.4676165 15.4131196 56.1953412 15.7254422 55.923066 16.0377648 55.7865938 16.4528429 55.7865938 16.9720285L55.7865938 21.0369542 53.4137182 21.0369542 53.4137182 13.2397059 55.6922675 13.2397059 55.6922675 14.5579506C56.0796075 13.6581641 56.8810468 13.1660195 58.0965853 13.0815166L58.7883116 13.033519 58.9294666 15.0183222zM63.4705766 13.2397736L65.4039317 13.2397736 65.4039317 15.0339384 63.4705766 15.0339384 63.4705766 21.0370218 61.097701 21.0370218 61.097701 15.0339384 59.6359775 15.0339384 59.6359775 13.2397736 61.097701 13.2397736C61.1184394 12.1392082 61.4355364 11.3104042 62.048323 10.7547133 62.6617786 10.1990225 63.596345 9.88399581 64.8533603 9.81030931L65.7176838 9.76163566 65.8595078 11.5253794 65.1202838 11.5564765C64.512849 11.5781092 64.0860391 11.6916811 63.8398541 11.8985441 63.5936691 12.1040551 63.4705766 12.4461227 63.4705766 12.9220428L63.4705766 13.2397736zM73.8499507 18.273643C74.3791147 17.6172247 74.6440312 16.6701166 74.6440312 15.4316426 74.6440312 14.1924926 74.3811217 13.2474126 73.8579785 12.5970786 73.3341664 11.9460685 72.6056461 11.6202255 71.6737555 11.6202255 70.741196 11.6202255 70.0160206 11.9460685 69.4975603 12.5970786 68.978431 13.2474126 68.7195354 14.1924926 68.7195354 15.4316426 68.7195354 16.6701166 68.981107 17.6172247 69.5049191 18.273643 70.0287312 18.9307372 70.7518997 19.2579323 71.6737555 19.2579323 72.5956113 19.2579323 73.3207868 18.9307372 73.8499507 18.273643M68.8058339 20.4734215C67.993691 20.0022336 67.3681937 19.3349989 66.9273353 18.4723937 66.4878147 17.6097885 66.26772 16.5964301 66.26772 15.4316426 66.26772 14.2668552 66.4878147 13.2534968 66.9273353 12.3902156 67.3681937 11.5276103 67.993691 10.8637558 68.8058339 10.397976 69.6173079 9.93152022 70.5739507 9.69829232 71.6737555 9.69829232 72.7735603 9.69829232 73.7295341 9.93152022 74.5416771 10.397976 75.3531511 10.8637558 75.9793173 11.5276103 76.4188378 12.3902156 76.8596963 13.2534968 77.079791 14.2668552 77.079791 15.4316426 77.079791 16.5964301 76.8596963 17.6097885 76.4188378 18.4723937 75.9793173 19.3349989 75.3531511 20.0022336 74.5416771 20.4734215 73.7295341 20.9439335 72.7735603 21.1798655 71.6737555 21.1798655 70.5739507 21.1798655 69.6173079 20.9439335 68.8058339 20.4734215M84.1351992 18.7741027C84.4389166 18.398234 84.5907753 17.8560636 84.5907753 17.1469156 84.5907753 16.4262752 84.4389166 15.8678802 84.1351992 15.4710548 83.8308129 15.0735533 83.4013271 14.8754786 82.8467418 14.8754786 82.2914876 14.8754786 81.8613328 15.0694972 81.5576154 15.4555063 81.253898 15.8415153 81.1020393 16.3945021 81.1020393 17.1144665 81.1020393 17.8242905 81.253898 18.3718691 81.5576154 18.7585542 81.8613328 19.1452393 82.2914876 19.3379058 82.8467418 19.3379058 83.4013271 19.3379058 83.8308129 19.1499715 84.1351992 18.7741027M85.305916 13.5653462C85.8237073 13.9101179 86.2271028 14.3914462 86.5154337 15.0106832 86.8037645 15.6299202 86.9475954 16.3417723 86.9475954 17.1469156 86.9475954 17.9507068 86.8037645 18.6578268 86.5154337 19.2669234 86.2271028 19.8753441 85.8263832 20.3431519 85.3132748 20.6716991 84.8001664 20.9995702 84.2081182 21.1638437 83.5377992 21.1638437 83.0139871 21.1638437 82.5403485 21.055004 82.1155456 20.8386767 81.6914116 20.6216734 81.3636109 20.316787 81.1334815 19.9253698L81.1334815 23.8949763 78.7606058 23.8949763 78.7606058 13.2395031 81.1020393 13.2395031 81.1020393 14.3360123C81.3328378 13.9337787 81.6626454 13.618752 82.0921312 13.3909323 82.521617 13.1631126 83.0032834 13.0495407 83.5377992 13.0495407 84.1980835 13.0495407 84.7867867 13.2212505 85.305916 13.5653462M89.4069703 20.9177038C88.8149221 20.7541062 88.3044896 20.5181742 87.8750038 20.2112598L88.5031769 18.5597359C88.921959 18.8456936 89.3835559 19.0681051 89.8859607 19.2262945 90.3890344 19.3851598 90.89746 19.4649305 91.4105684 19.4649305 91.77717 19.4649305 92.0628249 19.4040885 92.2668641 19.2824044 92.4709033 19.1607202 92.5732574 18.9937426 92.5732574 18.7821474 92.5732574 18.5915089 92.5023454 18.4434599 92.3611904 18.3373243 92.2193664 18.2311887 91.9551189 18.1365455 91.5677789 18.0513666L90.3107636 17.766085C89.5661878 17.5964032 89.0189613 17.3341063 88.6684152 16.9798703 88.3172002 16.6249583 88.1419272 16.1409259 88.1419272 15.5264211 88.1419272 15.0403606 88.2804063 14.611086 88.5580334 14.2406255 88.8356605 13.8694889 89.2283523 13.5794751 89.7367779 13.3672039 90.2445345 13.1556087 90.8232031 13.0494731 91.4727836 13.0494731 92.0280379 13.0494731 92.5679055 13.133976 93.0917177 13.3029817 93.6155298 13.4726634 94.0871614 13.7112995 94.5059435 14.0182139L93.8777703 15.6061918C93.0602756 15.0342764 92.2534845 14.7483187 91.4573971 14.7483187 91.0907955 14.7483187 90.8024647 14.8125409 90.5930736 14.9389571 90.3830136 15.0660495 90.2793215 15.2458715 90.2793215 15.4790995 90.2793215 15.6487812 90.3415367 15.7806057 90.4673052 15.8759249 90.5930736 15.9719202 90.8131684 16.0611552 91.1275894 16.145658L92.4314334 16.4478403C93.2174861 16.6276624 93.7914718 16.9007756 94.1527215 17.265828 94.5139713 17.6308804 94.6945962 18.1257292 94.6945962 18.7503743 94.6945962 19.5021118 94.3982376 20.0916038 93.8068584 20.5208783 93.2148102 20.9494769 92.3999913 21.1637761 91.3630707 21.1637761 90.650606 21.1637761 89.9983495 21.0819774 89.4069703 20.9177038"/>
  </g>
</svg>
